<?xml version="1.0" encoding="UTF-8" standalone="no"?>
<!-- Created with Inkscape (http://www.inkscape.org/) -->

<svg
   xmlns:dc="http://purl.org/dc/elements/1.1/"
   xmlns:cc="http://creativecommons.org/ns#"
   xmlns:rdf="http://www.w3.org/1999/02/22-rdf-syntax-ns#"
   xmlns:svg="http://www.w3.org/2000/svg"
   xmlns="http://www.w3.org/2000/svg"
   xmlns:sodipodi="http://sodipodi.sourceforge.net/DTD/sodipodi-0.dtd"
   xmlns:inkscape="http://www.inkscape.org/namespaces/inkscape"
   width="200"
   height="32.493462"
   viewBox="0 0 52.916667 8.5972286"
   version="1.1"
   id="svg8"
   inkscape:version="0.92.3 (2405546, 2018-03-11)"
   sodipodi:docname="moments.svg">
  <defs
     id="defs2" />
  <sodipodi:namedview
     id="base"
     pagecolor="#ffffff"
     bordercolor="#666666"
     borderopacity="1.0"
     inkscape:pageopacity="0.0"
     inkscape:pageshadow="2"
     inkscape:zoom="2.8"
     inkscape:cx="99.811703"
     inkscape:cy="-13.166673"
     inkscape:document-units="mm"
     inkscape:current-layer="layer1"
     showgrid="false"
     inkscape:window-width="1299"
     inkscape:window-height="713"
     inkscape:window-x="67"
     inkscape:window-y="27"
     inkscape:window-maximized="1"
     units="px"
     fit-margin-top="0"
     fit-margin-left="0"
     fit-margin-right="0"
     fit-margin-bottom="0" />
  <metadata
     id="metadata5">
    <rdf:RDF>
      <cc:Work
         rdf:about="">
        <dc:format>image/svg+xml</dc:format>
        <dc:type
           rdf:resource="http://purl.org/dc/dcmitype/StillImage" />
        <dc:title></dc:title>
      </cc:Work>
    </rdf:RDF>
  </metadata>
  <g
     inkscape:label="Layer 1"
     inkscape:groupmode="layer"
     id="layer1"
     transform="translate(-51.366659,-65.145847)">
    <g
       id="g894"
       transform="matrix(1.0745192,0,0,1.0745192,-3.827801,-5.4952738)">
      <path
         d="m 52.509658,69.171074 q 0,-0.6477 -0.1778,-0.9525 -0.1778,-0.3175 -0.7112,-0.3175 h -0.254 v -0.254 h 1.143 q 0.4699,0 0.7112,0.127 0.254,0.127 0.3683,0.381 h 0.0635 q 0.2667,-0.2667 0.6858,-0.4445 0.4318,-0.1905 0.9652,-0.1905 0.5334,0 0.9144,0.2032 0.381,0.1905 0.6096,0.6858 0.3302,-0.4191 0.8382,-0.6477 0.5207,-0.2413 1.0668,-0.2413 0.8128,0 1.2954,0.508 0.4826,0.508 0.4826,1.778 v 3.81 h -1.143 v -3.81 q 0,-0.9144 -0.254,-1.3081 -0.254,-0.4064 -0.762,-0.4064 -0.3556,0 -0.7493,0.2667 -0.3937,0.254 -0.5842,0.5588 0.0635,0.1905 0.0635,0.889 v 3.81 h -1.143 v -3.81 q 0,-0.9144 -0.254,-1.3081 -0.254,-0.4064 -0.762,-0.4064 -0.6731,0 -1.27,0.6731 v 4.8514 h -1.143 z"
         style="font-style:normal;font-variant:normal;font-weight:bold;font-stretch:normal;font-size:12.69999981px;line-height:1.25;font-family:'ZCOOL XiaoWei';-inkscape-font-specification:'ZCOOL XiaoWei';letter-spacing:0px;word-spacing:0px;fill:#f9f9f9;fill-opacity:1;stroke:none;stroke-width:0.26458332"
         id="path837"
         inkscape:connector-curvature="0" />
      <path
         d="m 64.741743,73.743074 q -0.8636,0 -1.4986,-0.4064 -0.635,-0.4191 -0.9652,-1.1303 -0.3302,-0.7112 -0.3302,-1.5748 0,-0.8636 0.3302,-1.5748 0.3302,-0.7112 0.9652,-1.1176 0.635,-0.4191 1.4986,-0.4191 0.8636,0 1.4986,0.4191 0.635,0.4064 0.9652,1.1176 0.3302,0.7112 0.3302,1.5748 0,0.8636 -0.3302,1.5748 -0.3302,0.7112 -0.9652,1.1303 -0.635,0.4064 -1.4986,0.4064 z m 0,-0.508 q 0.4699,0 0.8255,-0.3429 0.3683,-0.3429 0.5588,-0.9398 0.2032,-0.5969 0.2032,-1.3208 0,-0.7239 -0.2032,-1.3208 -0.1905,-0.5969 -0.5588,-0.9398 -0.3556,-0.3429 -0.8255,-0.3429 -0.4699,0 -0.8382,0.3429 -0.3556,0.3429 -0.5588,0.9398 -0.1905,0.5969 -0.1905,1.3208 0,0.7239 0.1905,1.3208 0.2032,0.5969 0.5588,0.9398 0.3683,0.3429 0.8382,0.3429 z"
         style="font-style:normal;font-variant:normal;font-weight:bold;font-stretch:normal;font-size:12.69999981px;line-height:1.25;font-family:'ZCOOL XiaoWei';-inkscape-font-specification:'ZCOOL XiaoWei';letter-spacing:0px;word-spacing:0px;fill:#f9f9f9;fill-opacity:1;stroke:none;stroke-width:0.26458332"
         id="path839"
         inkscape:connector-curvature="0" />
      <path
         d="m 69.203212,69.171074 q 0,-0.6477 -0.1778,-0.9525 -0.1778,-0.3175 -0.7112,-0.3175 h -0.254 v -0.254 h 1.143 q 0.4699,0 0.7112,0.127 0.254,0.127 0.3683,0.381 h 0.0635 q 0.2667,-0.2667 0.6858,-0.4445 0.4318,-0.1905 0.9652,-0.1905 0.5334,0 0.9144,0.2032 0.381,0.1905 0.6096,0.6858 0.3302,-0.4191 0.8382,-0.6477 0.5207,-0.2413 1.0668,-0.2413 0.8128,0 1.2954,0.508 0.4826,0.508 0.4826,1.778 v 3.81 h -1.143 v -3.81 q 0,-0.9144 -0.254,-1.3081 -0.254,-0.4064 -0.762,-0.4064 -0.3556,0 -0.7493,0.2667 -0.3937,0.254 -0.5842,0.5588 0.0635,0.1905 0.0635,0.889 v 3.81 h -1.143 v -3.81 q 0,-0.9144 -0.254,-1.3081 -0.254,-0.4064 -0.762,-0.4064 -0.6731,0 -1.27,0.6731 v 4.8514 h -1.143 z"
         style="font-style:normal;font-variant:normal;font-weight:bold;font-stretch:normal;font-size:12.69999981px;line-height:1.25;font-family:'ZCOOL XiaoWei';-inkscape-font-specification:'ZCOOL XiaoWei';letter-spacing:0px;word-spacing:0px;fill:#f9f9f9;fill-opacity:1;stroke:none;stroke-width:0.26458332"
         id="path841"
         inkscape:connector-curvature="0" />
      <path
         d="m 81.308297,73.743074 q -0.8636,0 -1.4605,-0.4064 -0.5969,-0.4191 -0.901699,-1.1176 -0.3048,-0.7112 -0.3048,-1.5875 0,-0.8636 0.3048,-1.5748 0.304799,-0.7112 0.876299,-1.1176 0.5842,-0.4191 1.3589,-0.4191 1.2827,0 1.905,0.7239 0.635,0.7112 0.635,2.0701 l -0.0254,0.508 h -3.8481 q 0,1.0668 0.4572,1.7399 0.4572,0.6731 1.2573,0.6731 0.5969,0 1.0033,-0.254 0.4191,-0.254 0.7747,-0.762 l 0.254,0.1905 q -0.4191,0.6985 -0.9779,1.016 -0.5588,0.3175 -1.3081,0.3175 z m 1.2065,-3.429 q 0,-1.1176 -0.3302,-1.7018 -0.3302,-0.5842 -1.0033,-0.5842 -0.381,0 -0.6858,0.3048 -0.3048,0.2921 -0.4826,0.8128 -0.1651,0.5207 -0.1651,1.1684 z"
         style="font-style:normal;font-variant:normal;font-weight:bold;font-stretch:normal;font-size:12.69999981px;line-height:1.25;font-family:'ZCOOL XiaoWei';-inkscape-font-specification:'ZCOOL XiaoWei';letter-spacing:0px;word-spacing:0px;fill:#f9f9f9;fill-opacity:1;stroke:none;stroke-width:0.26458332"
         id="path843"
         inkscape:connector-curvature="0" />
      <path
         d="m 85.375869,69.171074 q 0,-0.6477 -0.1778,-0.9525 -0.1778,-0.3175 -0.7112,-0.3175 h -0.254 v -0.254 h 1.143 q 0.4699,0 0.7112,0.127 0.254,0.127 0.3683,0.381 h 0.0635 q 0.2667,-0.2667 0.6858,-0.4445 0.4318,-0.1905 0.9652,-0.1905 0.9525,0 1.5494,0.508 0.6096,0.508 0.6096,1.778 v 3.81 h -1.143 v -3.81 q 0,-0.889 -0.4064,-1.2954 -0.3937,-0.4191 -0.9906,-0.4191 -0.6731,0 -1.27,0.6731 v 4.8514 h -1.143 z"
         style="font-style:normal;font-variant:normal;font-weight:bold;font-stretch:normal;font-size:12.69999981px;line-height:1.25;font-family:'ZCOOL XiaoWei';-inkscape-font-specification:'ZCOOL XiaoWei';letter-spacing:0px;word-spacing:0px;fill:#f9f9f9;fill-opacity:1;stroke:none;stroke-width:0.26458332"
         id="path845"
         inkscape:connector-curvature="0" />
      <path
         d="m 93.871179,73.743074 q -0.7112,0 -1.1176,-0.4064 -0.4064,-0.4064 -0.4064,-1.2446 v -3.937 h -0.889 v -0.508 h 0.889 v -1.143 l 0.635,-0.762 h 0.508 v 1.905 h 1.524 v 0.508 h -1.524 v 3.937 q 0,1.143 0.889,1.143 0.3048,0 0.508,-0.0635 0.2159,-0.0635 0.4445,-0.1905 l 0.127,0.254 q -0.2921,0.2159 -0.6477,0.3683 -0.3556,0.1397 -0.9398,0.1397 z"
         style="font-style:normal;font-variant:normal;font-weight:bold;font-stretch:normal;font-size:12.69999981px;line-height:1.25;font-family:'ZCOOL XiaoWei';-inkscape-font-specification:'ZCOOL XiaoWei';letter-spacing:0px;word-spacing:0px;fill:#f9f9f9;fill-opacity:1;stroke:none;stroke-width:0.26458332"
         id="path847"
         inkscape:connector-curvature="0" />
      <path
         d="m 98.390989,73.743074 q -1.4605,0 -1.9685,-0.508 -0.2159,-0.2159 -0.2667,-0.4826 -0.0508,-0.2794 -0.0508,-0.8509 h 0.254 q 0.1143,0.635 0.5461,0.9906 0.4445,0.3429 1.2319,0.3429 0.6985,0 1.0414,-0.2413 0.3556,-0.2413 0.3556,-0.6477 0,-0.3683 -0.2794,-0.635 -0.2667,-0.2667 -0.8636,-0.508 l -0.762,-0.3175 q -0.762,-0.3048 -1.143,-0.7112 -0.381,-0.4064 -0.381,-1.0033 0,-0.7747 0.5842,-1.2065 0.5842,-0.4445 1.5113,-0.4445 1.397,0 1.905001,0.508 0.2159,0.2159 0.2667,0.4826 0.0508,0.2667 0.0508,0.8509 h -0.254 q -0.1016,-0.635 -0.533401,-0.9779 -0.4318,-0.3556 -1.1811,-0.3556 -0.5969,0 -0.9398,0.254 -0.3302,0.2413 -0.3302,0.635 0,0.6604 1.016,1.0795 l 0.762,0.3175 q 0.8636,0.3556 1.257301,0.762 0.3937,0.3937 0.3937,1.016 0,0.7747 -0.622301,1.2192 -0.6223,0.4318 -1.6002,0.4318 z"
         style="font-style:normal;font-variant:normal;font-weight:bold;font-stretch:normal;font-size:12.69999981px;line-height:1.25;font-family:'ZCOOL XiaoWei';-inkscape-font-specification:'ZCOOL XiaoWei';letter-spacing:0px;word-spacing:0px;fill:#f9f9f9;fill-opacity:1;stroke:none;stroke-width:0.26458332"
         id="path849"
         inkscape:connector-curvature="0" />
    </g>
  </g>
</svg>
